<?xml version="1.0" encoding="UTF-8" standalone="no"?>
<svg xmlns="http://www.w3.org/2000/svg" version="1.2" width="100%" height="100%" viewBox="0 0 1480 512">
  <circle cx="256" cy="256" r="256" style="fill:#6a3996" />
  <path d="m 255.99776,441.58278 -58.13603,-58.13603 9.91814,-9.91814 -69.31071,-69.31518 -9.91815,9.9226 -58.136027,-58.13156 87.148157,-87.15263 58.1405,58.13156 -18.93299,18.93748 11.8946,11.8991 49.15248,-49.15696 -11.89461,-11.89462 -18.28462,18.28462 -58.14051,-58.13603 86.49977,-86.499771 58.13604,58.136031 -9.91367,9.91814 69.30177,69.31072 9.9226,-9.91814 58.14052,58.1405 -86.49978,86.4953 -58.1405,-58.13604 18.28461,-18.28461 -9.67219,-9.6722 -49.15247,49.15694 9.66772,9.66774 18.93301,-18.93302 58.14497,58.14499 -87.15263,87.13921 z" style="fill:#ffffff"/>
  <path d="m 675.41748,163.53271 c -1.44542,3.85419 -3.31228,7.43736 -5.60059,10.74952 -2.2885,3.25196 -5.11891,6.32325 -8.49121,9.21386 -3.37248,2.83041 -7.46753,5.0586 -12.28515,6.68457 -4.81779,1.62598 -10.08715,2.43897 -15.80811,2.43897 -7.1664,0 -13.76063,-1.23454 -19.78271,-3.70361 -6.02218,-2.46908 -11.14099,-5.84147 -15.35645,-10.11719 -4.1553,-4.33592 -7.70835,-9.39451 -10.65918,-15.17578 -2.89064,-5.78122 -5.02849,-11.9539 -6.41357,-18.51807 -1.32488,-6.6243 -1.98732,-13.48952 -1.98731,-20.5957 -10e-6,-7.16627 0.69254,-14.06161 2.07764,-20.68604 1.38508,-6.684475 3.52293,-13.007711 6.41357,-18.969724 2.95083,-5.961803 6.534,-11.140835 10.74952,-15.53711 4.21546,-4.396034 9.33427,-7.888869 15.35644,-10.478515 6.02209,-2.589385 12.61632,-3.884143 19.78272,-3.884278 4.57675,1.35e-4 8.88257,0.572238 12.91748,1.716309 4.09497,1.084116 7.61791,2.529428 10.56884,4.335937 2.95076,1.806768 5.6005,3.944624 7.94922,6.413575 2.34854,2.408974 4.24551,4.847936 5.69092,7.316894 1.50543,2.408967 2.70986,4.87804 3.61328,7.407227 l -13.45947,3.703613 c -1.74651,-5.480034 -5.17912,-9.876188 -10.29785,-13.188477 -5.05867,-3.312053 -10.71947,-4.968139 -16.98242,-4.968261 l -0.18067,0 c -6.26308,1.22e-4 -11.95399,1.626097 -17.07275,4.877929 -5.05864,3.252068 -9.1838,7.588001 -12.37549,13.007813 -3.13154,5.420021 -5.54039,11.472261 -7.22656,18.156738 -1.68623,6.68465 -2.52932,13.6101 -2.5293,20.77637 -2e-5,7.28684 0.9033,14.27251 2.70996,20.95703 1.80661,6.62439 4.33591,12.52607 7.58789,17.70508 3.31214,5.11883 7.46741,9.21388 12.46582,12.28515 4.99832,3.01108 10.47846,4.51661 16.44043,4.5166 6.3834,1e-5 12.31519,-1.95718 17.79541,-5.87158 5.48006,-3.97459 9.18367,-8.73207 11.11084,-14.27246 l 13.27881,3.70361"/>
  <path d="m 705.94971,190 -13.73047,0 0,-131.523438 13.73047,0 0,50.947268 c 1.68617,-5.35962 4.96823,-9.846103 9.84619,-13.459475 4.93811,-3.673404 10.8398,-5.510154 17.70508,-5.510253 4.93809,9.9e-5 9.39447,0.99375 13.36914,2.980957 4.03476,1.987399 7.5577,4.998464 10.56884,9.033201 3.01099,4.03492 5.32951,9.33439 6.95557,15.89844 1.68611,6.50397 2.52921,14.09185 2.5293,22.76367 l 0,48.86963 -13.64014,0 0,-48.86963 c -7e-5,-5.41987 -0.45173,-10.38812 -1.35498,-14.90478 -0.84317,-4.51654 -2.16804,-8.55136 -3.97461,-12.1045 -1.8067,-3.55298 -4.24567,-6.32316 -7.31689,-8.31054 -3.07135,-1.98722 -6.65452,-2.98087 -10.74951,-2.98096 -4.0951,9e-5 -7.70838,1.02385 -10.83985,3.07129 -3.07132,2.04761 -5.57051,4.87801 -7.49756,8.49121 -1.86689,3.55313 -3.28209,7.58796 -4.2456,12.10449 -0.90335,4.51666 -1.35501,9.4247 -1.35498,14.72412 l 0,48.7793"/>
  <path d="m 799.89502,135.43945 47.15332,0 c -0.54206,-8.73203 -2.9208,-16.22958 -7.13623,-22.49267 -4.21555,-6.32316 -9.69569,-9.48478 -16.44043,-9.48487 -4.57687,9e-5 -8.67191,1.62607 -12.28516,4.87793 -3.55309,3.25204 -6.23293,7.25675 -8.03955,12.01416 -1.80666,4.69733 -2.89065,9.72581 -3.25195,15.08545 m 0,12.19483 c 0.48175,5.78128 1.62595,11.08076 3.43262,15.89843 1.80661,4.81773 4.45635,8.85256 7.94922,12.1045 3.55302,3.19174 7.61795,4.7876 12.19482,4.78759 4.33589,1e-5 8.6116,-1.14419 12.82715,-3.43261 4.27565,-2.34862 7.37705,-5.32957 9.3042,-8.94287 l 12.01416,4.96826 c -3.07137,5.96192 -7.76863,10.71941 -14.0918,14.27246 -6.26308,3.55306 -12.94764,5.32959 -20.05371,5.32959 -7.82882,0 -14.66393,-2.28841 -20.50537,-6.86524 -5.78127,-4.63703 -10.14732,-10.7796 -13.09815,-18.42773 -2.89063,-7.64808 -4.33594,-16.25973 -4.33593,-25.83496 -10e-6,-9.57514 1.47541,-18.12656 4.42627,-25.6543 2.95083,-7.52759 7.31687,-13.5196 13.09814,-17.976072 5.78122,-4.456283 12.58622,-6.684471 20.41504,-6.68457 5.84142,9.9e-5 11.14089,1.385188 15.89844,4.155273 4.75742,2.710053 8.61158,6.353439 11.5625,10.930179 3.01099,4.51668 5.2994,9.57527 6.86523,15.17578 1.56567,5.60065 2.34855,11.44211 2.34863,17.52441 -8e-5,0.66249 -8e-5,2.1078 0,4.33594 0.0601,2.16801 0.0902,3.61332 0.0903,4.33594 l -60.3418,0"/>
  <path d="m 893.11768,171.30127 c -3e-5,1.02378 0.0903,1.9271 0.27099,2.70996 0.96352,4.51661 4.45635,6.77491 10.47852,6.7749 l 0,11.8335 c -6.80504,0 -12.19485,-1.1141 -16.16944,-3.34229 -3.9144,-2.22818 -6.44369,-6.02212 -7.58789,-11.38183 -0.42156,-2.22818 -0.63233,-4.30581 -0.63232,-6.23291 l 0,-113.005373 13.64014,0 0,112.644043"/>
  <path d="m 983.90137,190 -13.73047,0 0,-49.41162 c -6e-5,-4.33588 -0.12051,-8.15994 -0.36133,-11.47217 -0.24095,-3.31211 -0.75283,-6.6845 -1.53564,-10.11719 -0.78294,-3.43254 -1.83682,-6.26294 -3.16163,-8.49121 -1.2647,-2.28833 -3.04123,-4.12508 -5.32959,-5.51025 -2.22824,-1.44523 -4.87797,-2.16788 -7.94921,-2.16797 -13.12829,9e-5 -19.69241,12.49601 -19.69239,37.48779 l 0,49.68262 -13.73047,0 0,-96.92627 13.73047,0 0,16.44043 c 1.08396,-2.28833 1.98728,-4.12508 2.70996,-5.51025 0.78285,-1.44523 1.86684,-3.13143 3.25196,-5.058598 1.44528,-1.92699 2.89059,-3.432522 4.33593,-4.516601 1.5055,-1.083888 3.40247,-2.017318 5.69092,-2.800293 2.28837,-0.782778 4.81766,-1.174217 7.58789,-1.174316 6.98562,9.9e-5 12.70665,2.077734 17.16309,6.23291 4.51653,4.095138 7.58782,9.304278 9.21387,15.627438 1.56567,-6.26293 4.60685,-11.47208 9.12353,-15.627438 4.51651,-4.155176 10.05684,-6.232811 16.62114,-6.23291 9.575,9.9e-5 16.5908,3.613377 21.0473,10.839848 4.5165,7.16642 6.7748,17.07282 6.7749,29.71923 l 0,58.98682 -13.6401,0 0,-49.05029 c -10e-5,-3.55301 -0.09,-6.74474 -0.271,-9.5752 -0.1808,-2.83034 -0.4819,-5.75107 -0.9033,-8.76221 -0.4217,-3.01099 -1.0841,-5.60051 -1.9873,-7.76855 -0.8432,-2.16789 -1.9272,-4.15519 -3.252,-5.96191 -1.2647,-1.80656 -2.8907,-3.16154 -4.8779,-4.06495 -1.9272,-0.90323 -4.1855,-1.35489 -6.7749,-1.35498 -13.36925,9e-5 -20.05381,12.31535 -20.05373,36.9458 l 0,49.59229"/>
  <path d="m 1087.5122,146.91162 c -3.6133,-1.20438 -6.6545,-2.28836 -9.1235,-3.25195 -2.4691,-0.9635 -5.2393,-2.31848 -8.3106,-4.06494 -3.0111,-1.74637 -5.45,-3.58312 -7.3169,-5.51026 -1.8668,-1.98724 -3.4627,-4.45632 -4.7876,-7.40722 -1.2646,-2.95078 -1.897,-6.20273 -1.8969,-9.75586 -10e-5,-8.25025 3.011,-14.6337 9.0332,-19.150394 6.0221,-4.516505 13.4895,-6.835025 22.4023,-6.955566 4.8779,9.9e-5 9.274,0.692644 13.1885,2.077636 3.9745,1.324966 7.1964,3.101494 9.6655,5.32959 2.469,2.228284 4.4262,4.426354 5.8716,6.594234 1.4452,2.10784 2.5292,4.2758 3.2519,6.50391 l -13.1884,2.70996 c -3.252,-7.34692 -9.4548,-11.02042 -18.6084,-11.02051 -4.8178,9e-5 -9.0032,1.20452 -12.5562,3.61329 -3.4928,2.34871 -5.2393,5.66088 -5.2392,9.93652 -10e-5,2.16804 0.4215,4.15534 1.2646,5.96191 0.9033,1.80671 2.0174,3.25202 3.3423,4.33594 1.3851,1.08405 2.8605,2.10781 4.4263,3.07129 1.6259,0.90338 3.1917,1.56581 4.6972,1.9873 1.5055,0.42161 2.8605,0.90338 4.065,1.44532 0.7226,0.24094 2.0173,0.6926 3.8842,1.35498 l 4.4263,1.62597 4.4263,1.71631 4.5166,2.07764 4.0649,2.43896 3.8843,2.98096 3.252,3.52295 2.7099,4.24561 1.5357,4.87792 0.6323,5.87159 c -10e-5,8.25034 -3.252,15.08546 -9.7559,20.50537 -6.5039,5.3597 -14.3026,8.03955 -23.396,8.03955 -9.1536,0 -16.5609,-2.01742 -22.2216,-6.05225 -5.6006,-4.03482 -9.5451,-9.42463 -11.8335,-16.16943 l 13.2788,-2.5293 c 1.8066,4.03485 4.2757,7.13625 7.4072,9.3042 3.1315,2.16798 7.4674,3.25196 13.0078,3.25195 6.0823,1e-5 10.8699,-1.4453 14.3628,-4.33593 3.4928,-2.89061 5.2392,-6.89533 5.2393,-12.01416 -10e-5,-2.40883 -0.5722,-4.5768 -1.7164,-6.50391 -1.1442,-1.92705 -2.8003,-3.55302 -4.9682,-4.87793 -2.1078,-1.38505 -4.1252,-2.46903 -6.0523,-3.25195 -1.8669,-0.84306 -4.1553,-1.68616 -6.8652,-2.5293"/>
  <path d="m 1165.8301,105.26855 0,84.73145 -13.7305,0 0,-84.73145 -12.5561,0 0,-12.19482 12.4658,0 0,-12.194824 c 0,-3.613168 0.8732,-7.015671 2.6196,-10.207519 1.8066,-3.19161 4.0348,-5.811236 6.6846,-7.858887 2.6497,-2.047397 5.4199,-3.643261 8.3105,-4.787598 2.8906,-1.204294 5.5102,-1.806506 7.8589,-1.80664 3.4928,1.34e-4 6.3834,0.632457 8.6719,1.896972 2.3486,1.204558 4.8176,3.041308 7.4072,5.510254 l -9.8462,9.484864 c -0.8431,-1.083867 -1.5357,-1.896854 -2.0776,-2.438965 -0.5421,-0.541873 -1.4153,-1.053754 -2.6196,-1.535645 -1.2045,-0.481649 -2.6498,-0.722534 -4.336,-0.722656 -2.4089,1.22e-4 -4.4865,0.782998 -6.2329,2.348633 -1.6862,1.565873 -2.5293,3.703729 -2.5293,6.413574 l 0,15.898437 17.6148,0 0,12.19482 -17.7051,0"/>
  <path d="m 1201.0596,141.4917 c 0,-7.16629 0.8732,-13.79063 2.6196,-19.87305 1.7464,-6.08228 4.2155,-11.38175 7.4072,-15.89844 3.1917,-4.57673 7.3169,-8.129786 12.3755,-10.659175 5.0586,-2.589421 10.7796,-3.884178 17.1631,-3.884277 8.3105,9.9e-5 15.4768,2.258397 21.499,6.774902 6.0221,4.51669 10.5086,10.50871 13.4595,17.97607 2.9508,7.46752 4.4262,15.98883 4.4263,25.56397 -10e-5,9.69568 -1.4454,18.33743 -4.336,25.92529 -2.8907,7.58791 -7.3471,13.70037 -13.3691,18.3374 -6.0222,4.57683 -13.2488,6.86524 -21.6797,6.86524 -8.431,0 -15.6576,-2.31852 -21.6797,-6.95557 -6.0221,-4.63703 -10.5086,-10.74949 -13.4595,-18.3374 -2.9508,-7.58786 -4.4262,-16.19951 -4.4262,-25.83496 m 13.9111,0 c 0,5.41996 0.4818,10.41833 1.4453,14.99512 0.9635,4.57685 2.439,8.70201 4.4263,12.37548 1.9873,3.6133 4.6671,6.4437 8.0395,8.49122 3.3724,2.04753 7.2868,3.07129 11.7432,3.07128 4.3359,1e-5 8.19,-1.02375 11.5625,-3.07128 3.3723,-2.04752 6.0522,-4.87792 8.0396,-8.49122 1.9872,-3.67347 3.4626,-7.79863 4.4262,-12.37548 0.9635,-4.57679 1.4453,-9.57516 1.4453,-14.99512 0,-7.28673 -0.8431,-13.67019 -2.5293,-19.15039 -1.6862,-5.54029 -4.4865,-10.05689 -8.4008,-13.54981 -3.9145,-3.55297 -8.7623,-5.3295 -14.5435,-5.32959 -5.9017,9e-5 -10.8098,1.77662 -14.7241,5.32959 -3.9144,3.49292 -6.7147,8.00952 -8.4009,13.54981 -1.6862,5.4802 -2.5293,11.86366 -2.5293,19.15039"/>
  <path d="m 1354.5337,93.706055 -7.2266,11.833495 c -2.9509,-1.80655 -6.2932,-2.70987 -10.0268,-2.70996 -5.3598,9e-5 -9.9065,1.80673 -13.6402,5.41992 -3.6735,3.61336 -6.3232,8.22029 -7.9492,13.8208 -1.5658,5.60065 -2.3486,11.98411 -2.3486,19.15039 l 0,48.7793 -13.7305,0 0,-96.92627 13.7305,0 0,16.3501 c 1.6862,-5.35962 4.9983,-9.846103 9.9365,-13.459475 4.9381,-3.673404 10.8097,-5.510154 17.6148,-5.510253 4.938,9.9e-5 9.4848,1.084082 13.6401,3.251953"/>
  <path d="m 1424.3604,58.657227 13.7304,0 0,131.342773 -13.7304,0 0,-16.62109 c -1.2045,2.70997 -2.4993,5.11882 -3.8843,7.22656 -1.3852,2.04753 -3.1316,4.03483 -5.2393,5.96191 -2.0476,1.92709 -4.5769,3.40251 -7.5879,4.42627 -3.0111,1.08398 -6.4136,1.62598 -10.2075,1.62598 -4.9382,0 -9.4247,-0.96354 -13.4595,-2.89063 -4.0348,-1.92708 -7.4072,-4.51659 -10.1172,-7.76855 -2.7099,-3.25194 -4.9983,-7.07599 -6.8652,-11.47217 -1.8669,-4.45635 -3.2218,-9.09339 -4.0649,-13.91113 -0.8431,-4.87789 -1.2647,-9.96659 -1.2647,-15.26611 0,-6.74474 0.6926,-13.06798 2.0777,-18.96973 1.385,-5.96184 3.4627,-11.35165 6.2329,-16.16943 2.7701,-4.87785 6.5038,-8.701898 11.2011,-11.472173 4.6973,-2.830305 10.0871,-4.245506 16.1695,-4.245605 3.7336,9.9e-5 7.106,0.542091 10.1172,1.625976 3.011,1.02386 5.5704,2.529392 7.6782,4.516602 2.1077,1.927174 3.8842,3.9747 5.3296,6.14258 1.4452,2.10783 2.74,4.51668 3.8843,7.22656 l 0,-51.308593 m -41.9141,54.379883 c -4.5769,6.80508 -6.8653,16.22972 -6.8652,28.27393 -1e-4,12.0443 2.3184,21.58938 6.9555,28.63525 4.637,6.98569 10.4183,10.47852 17.3438,10.47851 6.9856,1e-5 12.8873,-3.49282 17.705,-10.47851 4.8177,-7.04587 7.2265,-16.53073 7.2266,-28.45459 -10e-5,-11.98399 -2.4089,-21.43873 -7.2266,-28.36426 -4.8177,-6.92537 -10.7194,-10.38809 -17.705,-10.38818 -6.9857,9e-5 -12.7971,3.4327 -17.4341,10.29785"/>
  <path d="m 580.93018,415 0,-131.52344 19.42138,0 41.4624,112.64405 41.55274,-112.64405 18.69873,0 0,131.52344 -13.8208,0 0,-108.75977 -38.66211,107.31446 -16.16943,0 -38.66211,-107.31446 0,108.75977 -13.8208,0"/>
  <path d="m 757.34863,362.42676 c -6.62439,5e-5 -12.0443,2.1078 -16.25976,6.32324 -4.21552,4.15532 -6.32327,9.2139 -6.32325,15.17578 -2e-5,6.20283 2.13784,11.35175 6.41358,15.44678 4.27568,4.03484 9.66549,6.05225 16.16943,6.05224 5.7812,10e-6 10.80968,-2.07762 15.08545,-6.23291 4.27565,-4.21547 6.41351,-9.30417 6.41358,-15.26611 -7e-5,-6.14254 -2.19815,-11.26135 -6.59424,-15.35644 -4.39622,-4.09501 -9.36447,-6.14253 -14.90479,-6.14258 m -2.89062,-12.19483 c 6.26297,7e-5 11.68289,1.65615 16.25976,4.96827 4.57676,3.252 7.2265,6.3534 7.94922,9.30419 l 0,-8.67187 c -7e-5,-8.55137 -1.89704,-15.17571 -5.69092,-19.87305 -3.794,-4.7574 -9.24403,-7.13614 -16.35009,-7.13623 -4.0951,9e-5 -7.97937,0.66252 -11.65284,1.98731 -3.67353,1.26473 -6.53404,2.92081 -8.58154,4.96826 l -7.0459,-9.39453 c 8.06964,-6.56404 17.16305,-9.8461 27.28028,-9.84619 9.99669,9e-5 18.30722,3.46282 24.93164,10.38818 6.62427,6.92554 9.93644,16.56094 9.93652,28.90625 l 0,11.11084 0,48.05664 -12.64648,0 0,-14.0918 0,-0.18066 c -0.12051,1.20444 -0.81306,2.74008 -2.07764,4.60693 -1.26471,1.80665 -2.9208,3.6434 -4.96826,5.51026 -2.04759,1.86686 -4.6371,3.46273 -7.76856,4.78759 -3.13156,1.32487 -6.32329,1.98731 -9.57519,1.98731 -9.75589,0 -17.79544,-3.1014 -24.11865,-9.3042 -6.32326,-6.20279 -9.48488,-14.33266 -9.48487,-24.38965 -1e-5,-9.63537 3.25194,-17.64481 9.75586,-24.02832 6.50388,-6.44362 14.45309,-9.66546 23.84766,-9.66553"/>
  <path d="M 844.15771,359.35547 885.80078,415 l -15.71777,0 -34.23584,-46.25 -9.5752,12.01416 0,34.23584 -13.73047,0 0,-131.34277 13.73047,0 0,78.76953 36.9458,-44.35303 15.71778,0 -34.77784,41.28174"/>
  <path d="m 909.37744,360.43945 47.15332,0 c -0.54206,-8.73203 -2.9208,-16.22958 -7.13623,-22.49267 -4.21555,-6.32316 -9.69569,-9.48478 -16.44043,-9.48487 -4.57686,9e-5 -8.67191,1.62607 -12.28515,4.87793 -3.5531,3.25204 -6.23294,7.25675 -8.03956,12.01416 -1.80666,4.69733 -2.89064,9.72581 -3.25195,15.08545 m 0,12.19483 c 0.48175,5.78128 1.62595,11.08076 3.43262,15.89843 1.80661,4.81773 4.45635,8.85256 7.94922,12.1045 3.55302,3.19174 7.61796,4.7876 12.19482,4.78759 4.33589,10e-6 8.6116,-1.14419 12.82715,-3.43261 4.27565,-2.34862 7.37705,-5.32957 9.3042,-8.94287 l 12.01416,4.96826 c -3.07137,5.96192 -7.76863,10.71941 -14.0918,14.27246 -6.26308,3.55306 -12.94764,5.32959 -20.05371,5.32959 -7.82881,0 -14.66393,-2.28841 -20.50537,-6.86524 -5.78127,-4.63703 -10.14731,-10.7796 -13.09814,-18.42773 -2.89064,-7.64808 -4.33595,-16.25973 -4.33594,-25.83496 -10e-6,-9.57514 1.47541,-18.12656 4.42627,-25.6543 2.95083,-7.52759 7.31687,-13.5196 13.09814,-17.97607 5.78122,-4.45629 12.58623,-6.68447 20.41504,-6.68457 5.84142,10e-5 11.14089,1.38519 15.89844,4.15527 4.75742,2.71005 8.61158,6.35344 11.5625,10.93018 3.01099,4.51668 5.2994,9.57527 6.86523,15.17578 1.56568,5.60065 2.34855,11.44211 2.34864,17.52441 -9e-5,0.66249 -9e-5,2.1078 0,4.33594 0.0601,2.16801 0.0902,3.61332 0.0903,4.33594 l -60.3418,0"/>
  <path d="m 1044.1528,318.70605 -7.2265,11.8335 c -2.9509,-1.80655 -6.2932,-2.70987 -10.0269,-2.70996 -5.3597,9e-5 -9.9064,1.80673 -13.6401,5.41992 -3.6736,3.61336 -6.3233,8.22029 -7.9492,13.8208 -1.5658,5.60065 -2.3487,11.98411 -2.3487,19.15039 l 0,48.7793 -13.73044,0 0,-96.92627 13.73044,0 0,16.3501 c 1.6862,-5.35962 4.9984,-9.8461 9.9365,-13.45947 4.9382,-3.67341 10.8097,-5.51016 17.6148,-5.51026 4.9381,1e-4 9.4848,1.08408 13.6401,3.25195"/>
  <path d="m 1082.0923,371.91162 c -3.6133,-1.20438 -6.6545,-2.28836 -9.1235,-3.25195 -2.4692,-0.9635 -5.2393,-2.31848 -8.3106,-4.06494 -3.0111,-1.74637 -5.45,-3.58312 -7.3169,-5.51026 -1.8669,-1.98724 -3.4627,-4.45632 -4.7876,-7.40722 -1.2646,-2.95078 -1.897,-6.20273 -1.897,-9.75586 0,-8.25025 3.0111,-14.6337 9.0332,-19.15039 6.0222,-4.51651 13.4896,-6.83503 22.4024,-6.95557 4.8779,1e-4 9.274,0.69264 13.1885,2.07764 3.9745,1.32496 7.1964,3.10149 9.6655,5.32959 2.469,2.22828 4.4262,4.42635 5.8716,6.59423 1.4452,2.10784 2.5292,4.2758 3.2519,6.50391 l -13.1885,2.70996 c -3.252,-7.34692 -9.4548,-11.02042 -18.6084,-11.02051 -4.8177,9e-5 -9.0031,1.20452 -12.5561,3.61329 -3.4929,2.34871 -5.2393,5.66088 -5.2393,9.93652 0,2.16804 0.4216,4.15534 1.2647,5.96191 0.9033,1.80671 2.0174,3.25202 3.3423,4.33594 1.385,1.08405 2.8605,2.10781 4.4262,3.07129 1.626,0.90338 3.1917,1.56581 4.6973,1.9873 1.5055,0.42161 2.8605,0.90338 4.0649,1.44532 0.7227,0.24094 2.0174,0.6926 3.8843,1.35498 l 4.4263,1.62597 4.4263,1.71631 4.5166,2.07764 4.0649,2.43896 3.8843,2.98096 3.2519,3.52295 2.71,4.24561 1.5356,4.87792 0.6324,5.87159 c -10e-5,8.25034 -3.2521,15.08546 -9.7559,20.50537 -6.504,5.3597 -14.3026,8.03955 -23.396,8.03955 -9.1537,0 -16.5609,-2.01742 -22.2217,-6.05225 -5.6006,-4.03482 -9.5451,-9.42463 -11.8335,-16.16943 l 13.2788,-2.5293 c 1.8067,4.03485 4.2757,7.13625 7.4073,9.3042 3.1315,2.16798 7.4674,3.25196 13.0078,3.25195 6.0823,10e-6 10.8699,-1.4453 14.3628,-4.33593 3.4928,-2.89061 5.2392,-6.89533 5.2392,-12.01416 0,-2.40883 -0.5721,-4.5768 -1.7163,-6.50391 -1.1442,-1.92705 -2.8003,-3.55302 -4.9682,-4.87793 -2.1078,-1.38505 -4.1252,-2.46903 -6.0523,-3.25195 -1.8669,-0.84306 -4.1553,-1.68616 -6.8652,-2.5293"/>
  <path d="m 1148.2153,318.07373 0,16.89209 c 1.1442,-2.70988 2.439,-5.11873 3.8843,-7.22656 1.4453,-2.16788 3.2218,-4.21541 5.3296,-6.14258 2.1077,-1.98721 4.6671,-3.49274 7.6782,-4.5166 3.011,-1.08389 6.3834,-1.62588 10.1172,-1.62598 6.0823,1e-4 11.4721,1.4153 16.1694,4.24561 4.6972,2.77027 8.431,6.59432 11.2012,11.47216 2.7701,4.81779 4.8477,10.2076 6.2329,16.16944 1.385,5.90175 2.0776,12.22499 2.0777,18.96973 -10e-5,6.68461 -0.6927,13.00784 -2.0777,18.96972 -1.3852,5.90172 -3.4628,11.32163 -6.2329,16.25977 -2.7702,4.93816 -6.5341,8.85254 -11.2915,11.74316 -4.6973,2.89063 -10.1172,4.33594 -16.2598,4.33594 -3.7337,0 -7.1061,-0.542 -10.1171,-1.62598 -3.0111,-1.02376 -5.5706,-2.49918 -7.6783,-4.42627 -2.1077,-1.92708 -3.8542,-3.91438 -5.2392,-5.96191 -1.3249,-2.10774 -2.5896,-4.51659 -3.794,-7.22656 l 0,55.2832 -13.7304,0 0,-135.58838 13.7304,0 m 41.8238,76.87256 c 4.6369,-7.04587 6.9555,-16.59095 6.9555,-28.63525 0,-12.04421 -2.3186,-21.46885 -6.9555,-28.27393 -4.5769,-6.86515 -10.3582,-10.29776 -17.3438,-10.29785 -6.9857,9e-5 -12.8874,3.46281 -17.7051,10.38818 -4.8177,6.92553 -7.2266,16.38027 -7.2265,28.36426 -10e-5,11.92386 2.4088,21.40872 7.2265,28.45459 4.8177,6.98569 10.7194,10.47852 17.7051,10.47851 6.9254,10e-6 12.7067,-3.49282 17.3438,-10.47851"/>
  <path d="m 1263.208,362.42676 c -6.6244,5e-5 -12.0443,2.1078 -16.2598,6.32324 -4.2155,4.15532 -6.3232,9.2139 -6.3232,15.17578 0,6.20283 2.1378,11.35175 6.4136,15.44678 4.2757,4.03484 9.6655,6.05225 16.1694,6.05224 5.7812,10e-6 10.8097,-2.07762 15.0855,-6.23291 4.2756,-4.21547 6.4135,-9.30417 6.4135,-15.26611 0,-6.14254 -2.1981,-11.26135 -6.5942,-15.35644 -4.3962,-4.09501 -9.3645,-6.14253 -14.9048,-6.14258 m -2.8906,-12.19483 c 6.263,7e-5 11.6829,1.65615 16.2597,4.96827 4.5768,3.252 7.2265,6.3534 7.9493,9.30419 l 0,-8.67187 c -10e-5,-8.55137 -1.8971,-15.17571 -5.691,-19.87305 -3.794,-4.7574 -9.244,-7.13614 -16.35,-7.13623 -4.0951,9e-5 -7.9794,0.66252 -11.6529,1.98731 -3.6735,1.26473 -6.534,2.92081 -8.5815,4.96826 l -7.0459,-9.39453 c 8.0696,-6.56404 17.163,-9.8461 27.2803,-9.84619 9.9966,9e-5 18.3072,3.46282 24.9316,10.38818 6.6243,6.92554 9.9364,16.56094 9.9365,28.90625 l 0,11.11084 0,48.05664 -12.6465,0 0,-14.0918 0,-0.18066 c -0.1205,1.20444 -0.813,2.74008 -2.0776,4.60693 -1.2647,1.80665 -2.9208,3.6434 -4.9683,5.51026 -2.0476,1.86686 -4.6371,3.46273 -7.7685,4.78759 -3.1316,1.32487 -6.3233,1.98731 -9.5752,1.98731 -9.7559,0 -17.7955,-3.1014 -24.1187,-9.3042 -6.3232,-6.20279 -9.4848,-14.33266 -9.4848,-24.38965 0,-9.63537 3.2519,-17.64481 9.7558,-24.02832 6.5039,-6.44362 14.4531,-9.66546 23.8477,-9.66553"/>
  <path d="m 1376.3037,341.92139 c -1.084,-3.01099 -3.4327,-5.99195 -7.0459,-8.94287 -3.6133,-3.01099 -7.5277,-4.51652 -11.7432,-4.51661 -7.6481,9e-5 -14.2122,3.61337 -19.6923,10.83985 -5.42,7.16641 -8.1299,16.22971 -8.1299,27.18994 0,11.68298 2.6497,21.10761 7.9492,28.27392 5.2994,7.10614 11.8636,10.65919 19.6924,10.65918 2.5894,10e-6 5.0585,-0.51187 7.4072,-1.53564 2.4088,-1.08397 4.4262,-2.43895 6.0523,-4.06494 1.6259,-1.62596 2.9206,-3.1616 3.8842,-4.60693 1.0237,-1.4453 1.8367,-2.80028 2.439,-4.06495 l 11.0205,6.95557 c -1.4454,2.46909 -3.1316,4.78761 -5.0586,6.95557 -1.9271,2.16797 -4.1854,4.24561 -6.7749,6.23291 -2.5294,1.92708 -5.4501,3.46272 -8.7622,4.60693 -3.252,1.1442 -6.6545,1.71631 -10.2075,1.71631 -7.8891,0 -15.0253,-2.28841 -21.4087,-6.86524 -6.3233,-4.57681 -11.2614,-10.74949 -14.8145,-18.51806 -3.4928,-7.82875 -5.2392,-16.41028 -5.2392,-25.74463 0,-5.17898 0.6022,-10.20746 1.8066,-15.08545 1.2044,-4.93808 3.0111,-9.5149 5.4199,-13.73047 2.4089,-4.27563 5.2393,-8.00935 8.4913,-11.20117 3.3121,-3.19164 7.1964,-5.69082 11.6528,-7.49756 4.4563,-1.86676 9.2138,-2.80019 14.2724,-2.80029 6.8652,10e-5 12.8572,1.83685 17.9761,5.51025 5.179,3.67359 9.3945,8.43108 12.6465,14.27246 l -11.8335,5.96192"/>
  <path d="m 1413.0688,360.43945 47.1534,0 c -0.5421,-8.73203 -2.9208,-16.22958 -7.1363,-22.49267 -4.2155,-6.32316 -9.6957,-9.48478 -16.4404,-9.48487 -4.5769,9e-5 -8.6719,1.62607 -12.2851,4.87793 -3.5531,3.25204 -6.233,7.25675 -8.0396,12.01416 -1.8067,4.69733 -2.8906,9.72581 -3.252,15.08545 m 0,12.19483 c 0.4818,5.78128 1.626,11.08076 3.4327,15.89843 1.8066,4.81773 4.4563,8.85256 7.9492,12.1045 3.553,3.19174 7.6179,4.7876 12.1948,4.78759 4.3359,10e-6 8.6116,-1.14419 12.8272,-3.43261 4.2756,-2.34862 7.377,-5.32957 9.3042,-8.94287 l 12.0141,4.96826 c -3.0714,5.96192 -7.7686,10.71941 -14.0918,14.27246 -6.2631,3.55306 -12.9476,5.32959 -20.0537,5.32959 -7.8288,0 -14.6639,-2.28841 -20.5054,-6.86524 -5.7812,-4.63703 -10.1473,-10.7796 -13.0981,-18.42773 -2.8906,-7.64808 -4.336,-16.25973 -4.3359,-25.83496 -1e-4,-9.57514 1.4754,-18.12656 4.4262,-25.6543 2.9509,-7.52759 7.3169,-13.5196 13.0982,-17.97607 5.7812,-4.45629 12.5862,-6.68447 20.415,-6.68457 5.8414,10e-5 11.1409,1.38519 15.8984,4.15527 4.7575,2.71005 8.6116,6.35344 11.5625,10.93018 3.011,4.51668 5.2994,9.57527 6.8653,15.17578 1.5657,5.60065 2.3485,11.44211 2.3486,17.52441 -10e-5,0.66249 -10e-5,2.1078 0,4.33594 0.06,2.16801 0.09,3.61332 0.09,4.33594 l -60.3418,0"/>
</svg>
