<?xml version="1.0" encoding="UTF-8" standalone="no"?>
<svg xmlns="http://www.w3.org/2000/svg" version="1.2" width="100%" height="100%" viewBox="0 0 812 512">
  <path d="m 569.61291,339.73623 -24.81302,0 0,-168.83314 24.81302,0 0,168.83314 z"/>
  <path d="m 613.71556,339.73623 -24.81301,0 0,-168.83314 24.81301,0 0,168.83314 z"/>
  <path d="m 767.25647,263.43635 0,-22.7498 0,-45.06099 0,-24.52011 c -1.00406,-0.0264 -1.95527,-0.074 -2.99103,-0.074 l -21.84615,0 0,168.96153 24.83718,0 0,-24.59938 0,-51.95727 z"/>
  <path d="m 794.15408,250.79529 c 11.94827,-10.34706 15.39905,-19.30959 15.39905,-34.94116 0,-29.32373 -11.9377,-41.62606 -34.73506,-44.25774 l 0,24.95344 c 5.24752,1.75445 10.82795,6.82758 10.82795,21.60306 0,14.77548 -5.58043,19.85389 -10.82795,21.60835 l 0,24.47784 c 5.24752,1.80201 10.82795,7.47757 10.82795,25.18067 0,17.69253 -5.58043,23.3628 -10.82795,25.16482 l 0,25.24937 c 28.15057,-1.98169 36.57407,-23.3628 36.57407,-47.66625 0,-33.55661 -17.23806,-41.3724 -17.23806,-41.3724"/>
  <path d="m 774.81701,339.99195 0,-0.15854 c -0.613,0.0423 -1.18901,0.13212 -1.82315,0.15854 l 1.82315,0 z"/>
  <path d="m 668.64705,305.90582 0,-0.62886 c 0,0 0,0.23781 0,0.62886"/>
  <path d="m 685.20235,305.27644 0,0.62886 c 0.005,-0.39106 0,-0.62886 0,-0.62886"/>
  <path d="m 668.64705,305.27644 0,-133.85127 0,-0.39634 -24.8319,0 0,134.24761 c 0,0 -0.17967,30.20096 24.8319,35.69156 l 0,-35.0627 c 0,-0.39106 0,-0.62886 0,-0.62886"/>
  <path d="m 687.95822,171.02988 0,0.39634 0,133.85127 c 0,0 0.0106,0.2378 0,0.62885 l 0,35.06271 c 25.01157,-5.49061 24.82133,-35.69156 24.82133,-35.69156 l 0,-134.24761 -24.82133,0 z"/>
  <path d="m 584.52034,265.95336 -9.64951,0 0,-25.03799 9.64951,0 0,25.03799 z"/>
  <path d="m 683.13452,340.96694 -9.64951,0 0,-25.038 9.64951,0 0,25.038 z"/>
  <path d="m 236.90972,31.083464 -0.58658,-6.954411 C 176.97813,29.165188 119.55668,56.84015 78.131432,105.95435 l 5.332067,4.5024 C 123.64689,62.811642 179.34559,35.966348 236.90972,31.083464 M 392.60714,210.13312 c 0,18.16285 11.02877,35.40619 22.76037,52.64426 9.41699,14.25759 19.99129,27.81235 19.99129,39.07364 0,10.58487 -2.75323,18.6226 -10.10926,18.6226 -10.34707,0 -11.72632,-14.71207 -11.72632,-28.73186 l -24.36686,2.29347 c 0,25.05913 4.14834,49.20404 36.09318,49.20404 27.12537,0 34.48141,-20.00185 34.48141,-42.53499 0,-18.15756 -11.72633,-34.93587 -23.22013,-52.17922 -9.66008,-14.0198 -19.5421,-26.89814 -19.5421,-38.39194 0,-9.64951 2.07152,-16.54579 8.50805,-16.77831 8.28082,0 9.88203,13.10029 9.88203,24.36686 l 24.37215,-2.29876 c 0,-18.84983 -4.82476,-45.51545 -34.70865,-44.82847 -23.44735,0.45975 -32.41516,21.15388 -32.41516,39.53868 m -51.25971,70.57459 -17.00026,0 7.11294,-53.33124 0.69756,-4.36501 1.37926,0 0.67641,4.36501 7.13409,53.33124 z m -25.05913,60.68199 4.6028,-34.47612 23.91239,0 4.58696,34.47612 24.13962,0 -25.51888,-168.95625 -30.33835,0 -25.51889,168.95625 24.13435,0 z m -99.75035,0 56.78202,0 0,-25.5136 -31.9607,0 0,-46.44025 22.99289,0 0,-27.1148 -22.99289,0 0,-44.36343 31.9607,0 0,-25.52417 -56.78202,0 0,168.95625 z M 144.35687,197.26535 c 17.48115,0 18.62789,4.37028 18.39008,59.53525 0.23781,55.40805 -0.90893,59.76777 -18.39008,59.76777 l 0,-119.30302 z m 44.1362,59.76248 c 0,-66.19901 -3.44021,-84.36186 -49.41014,-84.59438 l -19.54739,0 0,168.95625 19.54739,0 c 45.96993,-0.22195 49.41014,-18.3848 49.41014,-84.36187 m -123.657457,84.36187 24.821328,0 0,-168.95625 -24.821328,0 0,168.95625 z m 210.254667,139.52683 0.58658,6.95969 c 59.34501,-5.04142 116.76646,-32.71109 158.19171,-81.83058 l -5.33207,-4.5024 c -40.18867,47.64511 -95.88209,74.4904 -153.44622,79.37329 M 512,255.99735 C 512,397.38433 397.37905,512 256.00264,512 114.61567,512 1.3230002e-7,397.38433 1.3230002e-7,255.99735 1.3230002e-7,114.61038 114.61567,-4.4093999e-6 256.00264,-4.4093999e-6 397.37905,-4.4093999e-6 512,114.61038 512,255.99735"/>
</svg>